<svg data-v-0dd9719b="" version="1.0" xmlns="http://www.w3.org/2000/svg" xmlns:xlink="http://www.w3.org/1999/xlink" width="100%" height="100%" viewBox="0 0 340.000000 250.000000" preserveAspectRatio="xMidYMid meet" color-interpolation-filters="sRGB" style="margin: auto;"> <rect data-v-0dd9719b="" x="0" y="0" width="100%" height="100%" fill="#feffff" fill-opacity="0" class="background"></rect> <rect data-v-0dd9719b="" x="0" y="0" width="100%" height="100%" fill="url(#watermark)" fill-opacity="1" class="watermarklayer"></rect> <g data-v-0dd9719b="" fill="#333" class="iconlinesvg-g iconlinesvg" transform="translate(64.38607174158096,108.02979469299316)"><g class="tp-name" transform="matrix(1,0,0,1,0,0)" opacity="1"><g transform="translate(0, 0)"><g data-gra="path-name" fill="#333" transform="scale(1)"><path d="M6.26 0.30C8.50 0.30 9.77-1.35 10.32-3.24L10.32 0L16.80 0L16.80-20.79C16.80-25.18 13.58-27.57 9.17-27.57C3.61-27.57 1.16-25.61 1.16-20.12L1.16-19.23L7.49-19.23L7.49-20.87C7.49-21.78 7.97-22.65 8.79-22.65C9.79-22.65 10.25-21.56 10.25-20.42L10.25-17.62L8.46-17.03C6.42-16.38 4.91-15.79 3.91-15.26C1.62-14.02 0.75-11.64 0.75-7.82C0.75-3.07 1.72 0.30 6.26 0.30ZM8.83-4.77C7.86-4.77 7.38-5.58 7.38-7.19L7.38-10.69C7.38-12.95 8.47-13.82 10.21-14.49L10.21-6.89C10.21-5.81 9.89-4.77 8.83-4.77Z" transform="translate(-0.745187331815359, 33.64520803146347)"></path></g></g><g transform="translate(20, 0)"><g data-gra="path-name" fill="#333" transform="scale(1)"><path d="M1.30 0L7.94 0L7.94-32.19L1.30-32.19Z" transform="translate(-1.3040778306768785, 33.64520803146347)"></path></g></g><g transform="translate(30, 0)"><g data-gra="path-name" fill="#333" transform="scale(1)"><path d="M8.94 0.30C15.10 0.30 17.14-2.75 17.14-8.98L17.14-10.54L10.66-10.54L10.66-7.90C10.66-6.25 10.74-4.73 9.17-4.73C7.72-4.73 7.60-6.17 7.60-7.75L7.60-13.04L17.06-13.04C17.11-14.28 17.14-15.90 17.14-17.88L17.14-19.86C17.14-25.00 14.52-27.57 9.28-27.57C4.18-27.57 1.08-24.93 1.08-19.86L1.08-8.90C1.08-3.00 3.14 0.30 8.94 0.30ZM10.66-16.28L7.56-16.28L7.56-19.78C7.56-21.75 8.11-22.73 9.20-22.73C10.17-22.73 10.66-21.75 10.66-19.78Z" transform="translate(-1.0805216311322707, 33.64520803146347)"></path></g></g><g transform="translate(50, 0.5849720554750597)"><g><g class="imagesvg"><g><rect fill="#333" fill-opacity="0" stroke-width="2" x="0" y="0" width="32.773338853239494" height="32.773338853239494" class="image-rect"></rect> <svg filter="url(#colors9824396291)" x="0" y="0" width="32.773338853239494" height="32.773338853239494" filtersec="colorsf9763979286" class="image-svg-svg primary" style="overflow: visible;"><svg fill="#000000" xmlns="http://www.w3.org/2000/svg" xmlns:xlink="http://www.w3.org/1999/xlink" xml:space="preserve" version="1.1" style="shape-rendering:geometricPrecision;text-rendering:geometricPrecision;image-rendering:optimizeQuality;" viewBox="22.824337005615234 22.824337005615234 800.8944091796875 800.8944091796875" x="0px" y="0px" fill-rule="evenodd" clip-rule="evenodd"><defs></defs><g><path class="fil0" d="M423 272l217 -217c99,-99 251,53 151,152l-216 216 216 217c100,99 -52,251 -151,151l-217 -216 -216 216c-99,100 -251,-52 -152,-151l217 -217 -217 -216c-99,-99 53,-251 152,-152l216 217zm0 44l239 -238c71,-71 178,36 107,107l-239 238 239 239c71,71 -36,178 -107,107l-239 -239 -238 239c-71,71 -178,-36 -107,-107l238 -239 -238 -238c-71,-71 36,-178 107,-107l238 238z"></path></g></svg></svg> <defs><filter id="colors9824396291"><feColorMatrix type="matrix" values="0 0 0 0 0.19921875  0 0 0 0 0.19921875  0 0 0 0 0.19921875  0 0 0 1 0" class="icon-fecolormatrix"></feColorMatrix></filter> <filter id="colorsf9763979286"><feColorMatrix type="matrix" values="0 0 0 0 0.99609375  0 0 0 0 0.99609375  0 0 0 0 0.99609375  0 0 0 1 0" class="icon-fecolormatrix"></feColorMatrix></filter> <filter id="colorsb9459789918"><feColorMatrix type="matrix" values="0 0 0 0 0  0 0 0 0 0  0 0 0 0 0  0 0 0 1 0" class="icon-fecolormatrix"></feColorMatrix></filter></defs></g></g></g></g><g transform="translate(86, 0)"><g data-gra="path-name" fill="#333" transform="scale(1)"><path d="M1.30 0L7.94 0L7.94-32.19L1.30-32.19Z" transform="translate(-1.3040778306768785, 33.64520803146347)"></path></g></g><g transform="translate(96, 0)"><g data-gra="path-name" fill="#333" transform="scale(1)"><path d="M1.27-29.10L7.79-29.10L7.79-33.65L1.27-33.65ZM1.27 0L7.79 0L7.79-27.27L1.27-27.27Z" transform="translate(-1.2668184640861107, 33.64520803146347)"></path></g></g><g transform="translate(106, 0)"><g data-gra="path-name" fill="#333" transform="scale(1)"><path d="M1.30 0L7.75 0L7.75-12.85L11.81 0L18.74 0L13.53-15.43L17.62-27.27L10.88-27.27L7.75-17.88L7.75-32.19L1.30-32.19Z" transform="translate(-1.3040778306768785, 33.64520803146347)"></path></g></g><g transform="translate(127, 0)"><g data-gra="path-name" fill="#333" transform="scale(1)"><path d="M8.94 0.30C15.10 0.30 17.14-2.75 17.14-8.98L17.14-10.54L10.66-10.54L10.66-7.90C10.66-6.25 10.74-4.73 9.17-4.73C7.72-4.73 7.60-6.17 7.60-7.75L7.60-13.04L17.06-13.04C17.11-14.28 17.14-15.90 17.14-17.88L17.14-19.86C17.14-25.00 14.52-27.57 9.28-27.57C4.18-27.57 1.08-24.93 1.08-19.86L1.08-8.90C1.08-3.00 3.14 0.30 8.94 0.30ZM10.66-16.28L7.56-16.28L7.56-19.78C7.56-21.75 8.11-22.73 9.20-22.73C10.17-22.73 10.66-21.75 10.66-19.78Z" transform="translate(-1.0805216311322707, 33.64520803146347)"></path></g></g><g transform="translate(147, 0)"><g data-gra="path-name" fill="#333" transform="scale(1)"><path d="M9.46-22.54C10.52-22.54 10.92-21.47 10.92-20.38L10.92 0L17.33 0L17.33-21.05C17.33-25.01 15.77-27.57 11.92-27.57C9.51-27.57 8.32-25.83 7.82-23.81L7.82-27.27L1.30-27.27L1.30 0L7.82 0L7.82-19.19C7.82-20.86 7.95-22.54 9.46-22.54Z" transform="translate(-1.3040778306768783, 33.64520803146347)"></path></g></g><g transform="translate(167, 0)"><g data-gra="path-name" fill="#333" transform="scale(1)"><path d="M8.94 0.30C15.10 0.30 17.14-2.75 17.14-8.98L17.14-10.54L10.66-10.54L10.66-7.90C10.66-6.25 10.74-4.73 9.17-4.73C7.72-4.73 7.60-6.17 7.60-7.75L7.60-13.04L17.06-13.04C17.11-14.28 17.14-15.90 17.14-17.88L17.14-19.86C17.14-25.00 14.52-27.57 9.28-27.57C4.18-27.57 1.08-24.93 1.08-19.86L1.08-8.90C1.08-3.00 3.14 0.30 8.94 0.30ZM10.66-16.28L7.56-16.28L7.56-19.78C7.56-21.75 8.11-22.73 9.20-22.73C10.17-22.73 10.66-21.75 10.66-19.78Z" transform="translate(-1.0805216311322707, 33.64520803146347)"></path></g></g><g transform="translate(187, 0)"><g data-gra="path-name" fill="#333" transform="scale(1)"><path d="M4.17 0L11.40 0L13.12-15.50L15.05 0L21.57 0L25.08-27.27L18.93-27.27L17.40-12.63L15.54-27.27L9.84-27.27L8.27-12.63L6.45-27.27L0.86-27.27Z" transform="translate(-0.856965431587663, 33.64520803146347)"></path></g></g></g> <!----></g><defs v-gra="od"></defs></svg>