<svg xmlns="http://www.w3.org/2000/svg" width="75" height="29" viewBox="0 0 75 29" fill="none">
    <g clipPath="url(#clip0_1708_3854)">
    <path
        d="M71.4771 5.31723C70.7569 5.31723 70.1868 5.10648 69.6766 4.65486C69.1965 4.23336 68.9265 3.6011 68.9265 2.8183C68.9265 2.03551 69.1665 1.52368 69.6766 1.04196C70.1868 0.590347 70.7869 0.349487 71.4771 0.349487C72.1672 0.349487 72.7073 0.56024 73.2175 0.981745C73.7276 1.40325 73.9677 2.0054 73.9677 2.8183C73.9677 3.63121 73.7276 4.20325 73.2175 4.65486C72.7374 5.07637 72.1372 5.31723 71.4471 5.31723H71.4771ZM73.9977 10.5559V25.2484C73.9977 26.242 73.7576 27.0248 73.2775 27.5366C72.7974 28.0785 72.1972 28.3194 71.4471 28.3194C70.6969 28.3194 70.0967 28.0785 69.6466 27.5065C69.1965 26.9645 68.9565 26.2119 68.9565 25.2484V10.7065C68.9565 9.71293 69.1965 8.93013 69.6466 8.44841C70.1267 7.93658 70.7269 7.69572 71.4471 7.69572C72.1672 7.69572 72.7974 7.93658 73.2775 8.44841C73.7576 8.96024 73.9977 9.65271 73.9977 10.586V10.5559ZM55.5433 8.14734H56.1134V5.10648C56.1134 4.29357 56.1134 3.63121 56.1734 3.1796C56.2334 2.69788 56.3234 2.30648 56.5335 1.97529C56.7435 1.64411 57.0136 1.34304 57.3737 1.13228C57.7638 0.92153 58.1839 0.8011 58.634 0.8011C59.0841 0.8011 59.8643 1.04196 60.3744 1.52368C60.7045 1.85486 60.9445 2.24626 61.0346 2.69787C61.1246 3.17959 61.1546 3.81185 61.1546 4.68497V8.14734H63.015C63.7352 8.14734 64.2753 8.29787 64.6354 8.65916C65.0255 8.99035 65.2056 9.44196 65.2056 9.95379C65.2056 10.4656 64.9355 11.128 64.3954 11.3989C63.8552 11.6699 63.1051 11.8205 62.0848 11.8205H61.1546V21.1538C61.1546 21.9667 61.1846 22.5688 61.2446 22.9903C61.3046 23.4119 61.4547 23.7731 61.6647 24.014C61.9048 24.285 62.3249 24.4054 62.865 24.4054C63.4051 24.4054 63.5552 24.3753 64.0653 24.2549C64.5754 24.1344 64.9655 24.1043 65.2356 24.1043C65.6557 24.1043 66.0158 24.2549 66.3458 24.586C66.6759 24.9172 66.826 25.3086 66.826 25.7903C66.826 26.6033 66.4058 27.2355 65.5056 27.657C64.6054 28.0785 63.3451 28.3194 61.6647 28.3194C59.9843 28.3194 58.8741 28.0785 58.0639 27.5065C57.2537 26.9645 56.7135 26.242 56.4735 25.2785C56.2334 24.3452 56.0834 23.1108 56.0834 21.5151V11.7602H55.4232C54.7031 11.7602 54.1329 11.5796 53.7428 11.2183C53.3527 10.8871 53.1727 10.4355 53.1727 9.89357C53.1727 9.35164 53.3827 8.93013 53.7728 8.59895C54.1929 8.26777 54.7631 8.08712 55.5433 8.08712V8.14734ZM37.1789 16.3667H46.3611C46.2411 14.6506 45.7909 13.3258 44.9808 12.4828C44.1706 11.6097 43.0903 11.1882 41.77 11.1882C40.4497 11.1882 39.4894 11.6097 38.6792 12.4828C37.8691 13.3559 37.3889 14.6506 37.2089 16.3667H37.1789ZM47.0512 19.257H37.1789C37.1789 20.4011 37.419 21.4248 37.8991 22.2979C38.3492 23.171 38.9493 23.8334 39.6995 24.285C40.4497 24.7366 41.2599 24.9473 42.1901 24.9473C43.1203 24.9473 43.3604 24.8871 43.8405 24.7366C44.3506 24.6162 44.8307 24.3753 45.3108 24.0742C45.7909 23.7731 46.211 23.442 46.6011 23.0807C46.9912 22.7495 47.5013 22.2678 48.1315 21.6656C48.3716 21.4549 48.7617 21.3344 49.2418 21.3344C49.7219 21.3344 50.172 21.485 50.5021 21.7559C50.8021 22.057 50.9822 22.4484 50.9822 22.9602C50.9822 23.4721 50.8021 23.9538 50.4421 24.5559C50.082 25.1882 49.5418 25.7602 48.8217 26.3323C48.1015 26.9043 47.2013 27.3559 46.091 27.7473C45.0108 28.1086 43.7505 28.2893 42.3101 28.2893C39.0693 28.2893 36.5487 27.3559 34.7183 25.5194C32.9179 23.6527 32.0177 21.1237 32.0177 17.9323C32.0177 14.7409 32.2277 15.042 32.6778 13.7473C33.0979 12.4828 33.7581 11.3688 34.6283 10.4656C35.4685 9.53228 36.5187 8.83981 37.779 8.35809C39.0393 7.87637 40.4197 7.6054 41.92 7.6054C43.4204 7.6054 45.5809 8.02691 47.0212 8.86992C48.4316 9.71293 49.4818 10.7968 50.202 12.1215C50.9222 13.4463 51.2822 14.8011 51.2822 16.186C51.2822 17.571 50.8922 18.2936 50.172 18.685C49.4518 19.0463 48.4016 19.257 47.0812 19.257H47.0512ZM14.6435 10.4957V11.0979C15.5437 9.92368 16.504 9.05056 17.5542 8.50863C18.6045 7.93658 19.8048 7.66562 21.1851 7.66562C22.5654 7.66562 23.7057 7.96669 24.7559 8.53873C25.8062 9.11078 26.5864 9.95379 27.0965 11.0076C27.4266 11.6398 27.6366 12.3022 27.7566 13.0248C27.8467 13.7473 27.9067 14.6506 27.9067 15.7645V25.2484C27.9067 26.242 27.6666 27.0248 27.1865 27.5366C26.7364 28.0785 26.1063 28.3194 25.3861 28.3194C24.6659 28.3194 24.0358 28.0785 23.5556 27.5065C23.0755 26.9645 22.8355 26.2119 22.8355 25.2484V16.7882C22.8355 15.1022 22.5954 13.8377 22.1453 12.9344C21.6652 12.0312 20.765 11.6097 19.3847 11.6097C18.0043 11.6097 17.6742 11.8807 16.9241 12.4226C16.1739 12.9645 15.6338 13.7172 15.3037 14.6506C15.0636 15.4033 14.9136 16.8183 14.9136 18.8957V25.2785C14.9136 26.3022 14.6735 27.0549 14.1934 27.5968C13.7133 28.1086 13.1132 28.3495 12.333 28.3495C11.5528 28.3495 11.0127 28.1086 10.5325 27.5366C10.0524 26.9946 9.81238 26.242 9.81238 25.2785V10.586C9.81238 9.62261 10.0224 8.90002 10.4425 8.4183C10.8626 7.93658 11.4328 7.69572 12.1529 7.69572C12.8731 7.69572 12.9931 7.81615 13.3532 8.02691C13.7133 8.23766 14.0134 8.56884 14.2234 8.96024C14.4335 9.38175 14.5535 9.89357 14.5535 10.4957H14.6435Z"
        fill="#231F20"
    />
    <path
        d="M2.85075 12.9946C4.3511 12.9946 5.5814 11.7602 5.5814 10.2548C5.5814 8.74944 4.3511 7.48492 2.85075 7.48492C1.35039 7.48492 0.0900879 8.71933 0.0900879 10.2548C0.0900879 11.7602 1.32038 12.9946 2.85075 12.9946Z"
        fill="#ED0000"
    />
    <path
        d="M2.85075 20.5817C4.3511 20.5817 5.5814 19.3473 5.5814 17.8118C5.5814 16.2763 4.3511 15.0419 2.85075 15.0419C1.35039 15.0419 0.0900879 16.3064 0.0900879 17.8118C0.0900879 19.3473 1.32038 20.5817 2.85075 20.5817Z"
        fill="#ED0000"
    />
    <path
        d="M2.85075 28.1086C4.3511 28.1086 5.5814 26.8741 5.5814 25.3688C5.5814 23.8634 4.3511 22.5989 2.85075 22.5989C1.35039 22.5989 0.0900879 23.8333 0.0900879 25.3688C0.0900879 26.8741 1.32038 28.1086 2.85075 28.1086Z"
        fill="#ED0000"
    />
    </g>
    <defs>
    <clipPath id="clip0_1708_3854">
        <rect width="74.1177" height="28" fill="white" transform="translate(0 0.5)" />
    </clipPath>
    </defs>
</svg>